<svg width="191" height="185" viewBox="0 0 191 185" fill="none" xmlns="http://www.w3.org/2000/svg" class="absolute left-[calc(50%+200px)] lg:left-[calc(50%+215px)] translate-x-[-50%] top-[210px] lg:top-[180px] w-[64px] h-[61px] lg:w-[156px] lg:h-[151px]"><g clip-path="url(#clip0_104_1363)"><path d="M116.585 175.62L121.798 116.23L53.8155 78.5488L0.789709 148.315L116.585 175.62Z" fill="url(#paint0_linear_104_1363)"></path><path d="M156.935 117.695C150.787 130.279 111.308 133.873 78.2482 118.621C45.1888 103.369 23.1 71.3619 29.2475 58.7779C35.395 46.194 69.3125 53.9927 102.367 69.2476C135.421 84.5026 163.082 105.111 156.935 117.695Z" fill="#FE9D39"></path><path d="M163.602 114.055C171.344 98.2065 147.25 71.3449 109.787 54.0585C72.3237 36.7721 35.6778 35.6069 27.9359 51.4559C20.194 67.3049 44.2878 94.1664 81.751 111.453C119.214 128.739 155.86 129.904 163.602 114.055Z" fill="#388732"></path><path d="M27.2109 46.1955L26.706 56.1004L160.777 117.964L168.927 110.681L27.2109 46.1955Z" fill="#67757F"></path><path d="M172.338 106.191C180.534 89.4107 155.023 60.9698 115.356 42.6666C75.6892 24.3633 36.8881 23.1287 28.6913 39.909C20.4944 56.6894 46.006 85.1302 85.6728 103.433C125.34 121.737 164.141 122.971 172.338 106.191Z" fill="#9FDA9B"></path><path d="M164.079 93.077C170.226 80.4918 148.413 57.9247 115.357 42.672C82.3016 27.4192 50.521 25.2568 44.3734 37.8421C38.2258 50.4273 60.0391 72.9944 93.0948 88.2471C126.151 103.5 157.931 105.662 164.079 93.077Z" fill="#CAEBC7"></path><path d="M143.842 74.4294C146.916 68.1367 133.329 55.6167 113.496 46.4651C93.6625 37.3135 75.0925 34.9958 72.0187 41.2884C68.9449 47.581 82.5313 60.101 102.365 69.2527C122.198 78.4043 140.768 80.722 143.842 74.4294Z" fill="#E1E8ED"></path><path d="M72.0198 41.2819C75.0919 34.9873 89.2769 25.9743 117.208 38.8609C145.14 51.7475 146.917 68.127 143.845 74.4215C140.773 80.716 122.201 78.3979 102.368 69.2439C82.5351 60.0899 68.9434 47.5754 72.0198 41.2819Z" fill="#6DC167"></path><path d="M88.3987 99.932C90.7672 100.491 93.1284 99.1087 93.6724 96.8456C94.2165 94.5825 92.7374 92.2951 90.3688 91.7366C88.0002 91.1781 85.6391 92.5599 85.095 94.823C84.551 97.0861 86.0301 99.3735 88.3987 99.932Z" fill="#6DC167"></path><path d="M122.178 110.863C124.547 111.421 126.908 110.039 127.452 107.776C127.996 105.513 126.517 103.226 124.148 102.667C121.779 102.109 119.418 103.491 118.874 105.754C118.33 108.017 119.809 110.304 122.178 110.863Z" fill="#6DC167"></path><path d="M155.674 112.357C158.043 112.916 160.404 111.534 160.948 109.271C161.492 107.008 160.013 104.72 157.644 104.162C155.276 103.603 152.914 104.985 152.37 107.248C151.826 109.511 153.305 111.799 155.674 112.357Z" fill="#6DC167"></path><path d="M171.693 96.3763C172.652 95.6758 172.22 93.5976 170.728 91.7347C169.236 89.8718 167.249 88.9296 166.289 89.6301C165.33 90.3307 165.762 92.4088 167.254 94.2717C168.746 96.1346 170.733 97.0769 171.693 96.3763Z" fill="#6DC167"></path><path d="M41.0719 36.0518C43.5002 35.9979 45.4301 35.0096 45.3824 33.8444C45.3346 32.6792 43.3273 31.7783 40.8989 31.8322C38.4705 31.8861 36.5407 32.8744 36.5884 34.0396C36.6362 35.2048 38.6435 36.1057 41.0719 36.0518Z" fill="#6DC167"></path><path d="M35.967 57.119C38.3356 57.6775 40.6967 56.2957 41.2408 54.0326C41.7848 51.7694 40.3057 49.4821 37.9371 48.9235C35.5686 48.365 33.2074 49.7469 32.6634 52.01C32.1193 54.2731 33.5984 56.5605 35.967 57.119Z" fill="#6DC167"></path><path d="M58.3303 81.4013C60.6989 81.9598 63.06 80.578 63.6041 78.3148C64.1481 76.0517 62.669 73.7643 60.3004 73.2058C57.9318 72.6473 55.5707 74.0291 55.0267 76.2923C54.4826 78.5554 55.9617 80.8428 58.3303 81.4013Z" fill="#6DC167"></path><path d="M134.38 53.7722C135.917 50.6259 128.23 43.9538 117.212 38.8695C106.193 33.7853 96.015 32.2143 94.4781 35.3606C92.9412 38.5069 100.628 45.1791 111.646 50.2633C122.665 55.3476 132.843 56.9186 134.38 53.7722Z" fill="#449B3E"></path></g><defs><linearGradient id="paint0_linear_104_1363" x1="68.7529" y1="137.062" x2="59.1042" y2="162.128" gradientUnits="userSpaceOnUse"><stop stop-color="#FFC06E"></stop><stop offset="1" stop-color="#FFC06E" stop-opacity="0"></stop></linearGradient><clipPath id="clip0_104_1363"><rect width="158.628" height="151.721" fill="white" transform="matrix(0.973306 0.22951 -0.233733 0.972301 36.25 0.796631)"></rect></clipPath></defs></svg>