<svg width="177" height="197" viewBox="0 0 177 197" fill="none" xmlns="http://www.w3.org/2000/svg">
<path d="M27 72.4V54.3C27 39.8987 32.6893 26.0873 42.8162 15.9041C52.9432 5.72088 66.6783 0 81 0C95.3217 0 109.057 5.72088 119.184 15.9041C129.311 26.0873 135 39.8987 135 54.3V72.4H144C148.774 72.4 153.352 74.307 156.728 77.7014C160.104 81.0958 162 85.6996 162 90.5V162.9C162 167.7 160.104 172.304 156.728 175.699C153.352 179.093 148.774 181 144 181H18C13.2261 181 8.64773 179.093 5.27208 175.699C1.89642 172.304 0 167.7 0 162.9V90.5C0 80.545 8.1 72.4 18 72.4H27ZM72 133.306V153.85H90V133.306C93.4316 131.314 96.1135 128.239 97.6298 124.558C99.1462 120.877 99.4122 116.795 98.3867 112.947C97.3611 109.098 95.1013 105.697 91.9577 103.272C88.8141 100.846 84.9624 99.5314 81 99.5314C77.0376 99.5314 73.1859 100.846 70.0423 103.272C66.8987 105.697 64.6389 109.098 63.6133 112.947C62.5878 116.795 62.8538 120.877 64.3702 124.558C65.8865 128.239 68.5684 131.314 72 133.306ZM54 54.3V72.4H108V54.3C108 47.0994 105.155 40.1937 100.092 35.1021C95.0284 30.0104 88.1608 27.15 81 27.15C73.8392 27.15 66.9716 30.0104 61.9081 35.1021C56.8446 40.1937 54 47.0994 54 54.3Z" fill="black"/>
<path d="M27 72.4V54.3C27 39.8987 32.6893 26.0873 42.8162 15.9041C52.9432 5.72088 66.6783 0 81 0C95.3217 0 109.057 5.72088 119.184 15.9041C129.311 26.0873 135 39.8987 135 54.3V72.4H144C148.774 72.4 153.352 74.307 156.728 77.7014C160.104 81.0958 162 85.6996 162 90.5V162.9C162 167.7 160.104 172.304 156.728 175.699C153.352 179.093 148.774 181 144 181H18C13.2261 181 8.64773 179.093 5.27208 175.699C1.89642 172.304 0 167.7 0 162.9V90.5C0 80.545 8.1 72.4 18 72.4H27ZM72 133.306V153.85H90V133.306C93.4316 131.314 96.1135 128.239 97.6298 124.558C99.1462 120.877 99.4122 116.795 98.3867 112.947C97.3611 109.098 95.1013 105.697 91.9577 103.272C88.8141 100.846 84.9624 99.5314 81 99.5314C77.0376 99.5314 73.1859 100.846 70.0423 103.272C66.8987 105.697 64.6389 109.098 63.6133 112.947C62.5878 116.795 62.8538 120.877 64.3702 124.558C65.8865 128.239 68.5684 131.314 72 133.306ZM54 54.3V72.4H108V54.3C108 47.0994 105.155 40.1937 100.092 35.1021C95.0284 30.0104 88.1608 27.15 81 27.15C73.8392 27.15 66.9716 30.0104 61.9081 35.1021C56.8446 40.1937 54 47.0994 54 54.3Z" fill="url(#paint0_linear_42_688)"/>
<path d="M142.5 197C123.476 197 108 181.524 108 162.5C108 143.476 123.476 128 142.5 128C161.524 128 177 143.476 177 162.5C177 181.524 161.524 197 142.5 197ZM142.5 132.929C126.186 132.929 112.929 146.186 112.929 162.5C112.929 178.814 126.186 192.071 142.5 192.071C158.814 192.071 172.071 178.814 172.071 162.5C172.071 146.186 158.814 132.929 142.5 132.929Z" fill="white"/>
<path fill-rule="evenodd" clip-rule="evenodd" d="M142.5 132.929C126.186 132.929 112.929 146.186 112.929 162.5C112.929 178.814 126.186 192.071 142.5 192.071C158.814 192.071 172.071 178.814 172.071 162.5C172.071 146.186 158.814 132.929 142.5 132.929ZM151.076 174.476C151.47 174.723 151.914 174.821 152.357 174.821C152.895 174.819 153.418 174.641 153.846 174.315C154.274 173.989 154.584 173.532 154.728 173.013C154.873 172.495 154.845 171.944 154.649 171.443C154.452 170.942 154.097 170.519 153.639 170.238L142.5 163.584V145.25C142.5 143.87 141.416 142.786 140.036 142.786C138.656 142.786 137.571 143.87 137.571 145.25V164.964C137.567 165.39 137.673 165.81 137.881 166.181C138.088 166.553 138.389 166.864 138.754 167.084L151.076 174.476Z" fill="white"/>
<path d="M152.357 174.821C151.914 174.821 151.47 174.723 151.076 174.476L138.754 167.084C138.389 166.864 138.088 166.553 137.881 166.181C137.673 165.81 137.567 165.39 137.571 164.964V145.25C137.571 143.87 138.656 142.786 140.036 142.786C141.416 142.786 142.5 143.87 142.5 145.25V163.584L153.639 170.238C154.097 170.519 154.452 170.942 154.649 171.443C154.845 171.944 154.873 172.495 154.728 173.013C154.584 173.532 154.274 173.989 153.846 174.315C153.418 174.641 152.895 174.819 152.357 174.821Z" fill="#422929"/>
<path d="M152.357 174.821C151.914 174.821 151.47 174.723 151.076 174.476L138.754 167.084C138.389 166.864 138.088 166.553 137.881 166.181C137.673 165.81 137.567 165.39 137.571 164.964V145.25C137.571 143.87 138.656 142.786 140.036 142.786C141.416 142.786 142.5 143.87 142.5 145.25V163.584L153.639 170.238C154.097 170.519 154.452 170.942 154.649 171.443C154.845 171.944 154.873 172.495 154.728 173.013C154.584 173.532 154.274 173.989 153.846 174.315C153.418 174.641 152.895 174.819 152.357 174.821Z" fill="url(#paint1_linear_42_688)"/>
<defs>
<linearGradient id="paint0_linear_42_688" x1="544.075" y1="78.6572" x2="-311.661" y2="54.9409" gradientUnits="userSpaceOnUse">
<stop offset="0.385417" stop-color="#38CF8B"/>
<stop offset="0.5" stop-color="#2EF3C4"/>
<stop offset="0.604167" stop-color="#BF56F6"/>
</linearGradient>
<linearGradient id="paint1_linear_42_688" x1="339.736" y1="157.985" x2="-24.6749" y2="146.701" gradientUnits="userSpaceOnUse">
<stop offset="0.385417" stop-color="#38CF8B"/>
<stop offset="0.5" stop-color="#2EF3C4"/>
<stop offset="0.604167" stop-color="#BF56F6"/>
</linearGradient>
</defs>
</svg>
