<svg width="113" height="112" viewBox="0 0 113 112" fill="none" xmlns="http://www.w3.org/2000/svg" class="absolute right-[10px] z-10 lg:right-[-110px] top-[10px] lg:top-[-20px] w-[64px] lg:w-[112px]"><g clip-path="url(#clip0_203_1358)"><path d="M70.3757 81.3953C80.438 68.9111 80.8851 52.5764 71.3744 44.9107C61.8637 37.245 45.9966 41.1512 35.9343 53.6353C25.872 66.1195 25.4248 82.4542 34.9355 90.1199C44.4463 97.7856 60.3133 93.8795 70.3757 81.3953Z" fill="#EFB536"></path><path d="M71.1403 44.9103C67.3644 41.9687 62.6043 40.5872 57.8403 41.0503C61.5153 41.2748 65.0327 42.6222 67.9173 44.9103C77.4273 52.5763 76.9813 68.9103 66.9193 81.3943C60.7793 89.0123 52.4793 93.4283 44.7793 93.9783C53.3093 94.6173 63.1323 90.0893 70.1413 81.3943C80.2033 68.9103 80.6513 52.5753 71.1403 44.9103Z" fill="white"></path><path d="M74.3506 45.9623C73.8495 45.5586 73.3296 45.1788 72.7926 44.8243C72.7569 44.8069 72.7202 44.7919 72.6826 44.7793C72.5104 44.6941 72.3178 44.6588 72.1266 44.6773C71.9303 44.6973 71.7456 44.7796 71.5996 44.9123C71.5668 44.9333 71.5354 44.9564 71.5056 44.9813C71.4866 45.0013 71.4806 45.0283 71.4636 45.0493C71.4466 45.0703 71.4226 45.0833 71.4066 45.1063C71.3896 45.142 71.3749 45.1787 71.3626 45.2163C71.2761 45.3902 71.2407 45.5851 71.2606 45.7783C71.269 45.8405 71.2834 45.9018 71.3036 45.9613C71.3397 46.0866 71.4048 46.2017 71.4936 46.2973C71.5148 46.3311 71.5382 46.3635 71.5636 46.3943C79.8416 54.0303 78.9786 69.1303 69.5986 80.7693C59.8966 92.8043 44.6286 96.6493 35.5646 89.3423C35.506 89.3032 35.4433 89.2707 35.3776 89.2453L35.3226 89.2163C35.2272 89.1757 35.1259 89.1508 35.0226 89.1423C34.9956 89.1403 34.9696 89.1363 34.9426 89.1353C34.7291 89.1298 34.5204 89.1992 34.3526 89.3313C34.3188 89.3486 34.286 89.368 34.2546 89.3893C34.2346 89.4063 34.2276 89.4303 34.2106 89.4493C34.1946 89.4663 34.1726 89.4743 34.1576 89.4923C34.1402 89.5217 34.1246 89.5521 34.1106 89.5833C34.0617 89.6531 34.0224 89.7291 33.9936 89.8093C33.9838 89.8412 33.9758 89.8735 33.9696 89.9063C33.9457 90.0034 33.9369 90.1035 33.9436 90.2033C33.9456 90.2233 33.9496 90.2413 33.9526 90.2613C33.9666 90.37 33.9991 90.4755 34.0486 90.5733C34.0566 90.5893 34.0666 90.6033 34.0756 90.6183C34.1049 90.6832 34.1415 90.7445 34.1846 90.8013C34.889 91.5793 35.6533 92.3008 36.4706 92.9593C40.2918 95.9818 45.0401 97.591 49.9116 97.5143C58.5016 97.5143 67.8016 93.0343 74.4396 84.7993C84.8836 71.8423 84.8436 54.4193 74.3506 45.9623Z" fill="#F1B31C"></path><path d="M72.2398 45.6573C72.7478 45.9913 73.2421 46.352 73.7228 46.7393C83.8028 54.8633 83.7748 71.6223 73.6618 84.1693C63.5488 96.7163 47.1778 100.304 37.0978 92.1803C36.3214 91.5548 35.5951 90.8694 34.9258 90.1303" stroke="black" stroke-width="2" stroke-miterlimit="10"></path><path d="M70.3757 81.3953C80.438 68.9111 80.8851 52.5764 71.3744 44.9107C61.8637 37.245 45.9966 41.1512 35.9343 53.6353C25.872 66.1195 25.4248 82.4542 34.9355 90.1199C44.4463 97.7856 60.3133 93.8795 70.3757 81.3953Z" stroke="black" stroke-width="2" stroke-miterlimit="10"></path><path d="M70.3741 81.3953L73.6601 84.1703M66.9171 85.1403L69.8131 88.2533M63.2581 88.1843L65.6361 91.5063M59.2441 90.8623L61.1161 94.2063M73.0371 77.6553L76.5261 80.0693" stroke="black" stroke-width="2" stroke-miterlimit="10"></path></g><g clip-path="url(#clip1_203_1358)"><path d="M68.7607 80.7685C84.0654 75.9861 93.5188 62.6574 89.8755 50.9979C86.2322 39.3384 70.8718 33.7635 55.5671 38.5458C40.2624 43.3282 30.809 56.6569 34.4523 68.3164C38.0956 79.9759 53.456 85.5508 68.7607 80.7685Z" fill="#EFB536"></path><path d="M89.6831 50.8678C88.18 46.3234 84.9915 42.5286 80.7743 40.2648C83.704 42.4947 85.8786 45.5702 87.0042 49.0758C90.6467 60.7351 81.1946 74.0639 65.8903 78.8463C56.5513 81.7647 47.1972 80.8206 40.4912 76.9968C47.226 82.2704 57.9083 83.9681 68.5684 80.6377C83.8727 75.8553 93.327 62.5268 89.6831 50.8678Z" fill="white"></path><path d="M91.7654 53.5269C91.5734 52.9127 91.3523 52.308 91.1031 51.7147C91.0831 51.6805 91.0609 51.6476 91.0367 51.6162C90.9409 51.4496 90.8005 51.3132 90.6312 51.2223C90.457 51.1298 90.2577 51.0956 90.0625 51.1246C90.0236 51.1239 89.9847 51.1256 89.946 51.1297C89.9191 51.1358 89.8991 51.1549 89.8733 51.1629C89.8475 51.1709 89.8203 51.1683 89.7943 51.1786C89.7603 51.1988 89.7277 51.2212 89.6965 51.2455C89.528 51.342 89.3902 51.4843 89.2993 51.6559C89.2717 51.7124 89.2496 51.7713 89.2333 51.832C89.1937 51.9562 89.1838 52.0881 89.2044 52.2169C89.2033 52.2568 89.2047 52.2967 89.2087 52.3364C91.8438 63.2858 82.7312 75.3571 68.4636 79.8163C53.7081 84.4257 38.8797 79.1329 35.4082 68.02C35.3813 67.9549 35.3472 67.893 35.3067 67.8354L35.2771 67.7807C35.2204 67.694 35.1501 67.6169 35.0689 67.5524C35.0476 67.5357 35.0282 67.5179 35.0063 67.5021C34.8319 67.3789 34.6199 67.3205 34.4069 67.337C34.3692 67.3326 34.3312 67.3305 34.2932 67.3307C34.2672 67.3337 34.248 67.3498 34.2233 67.3561C34.2006 67.3614 34.1778 67.3558 34.1553 67.3624C34.1246 67.3773 34.0946 67.3938 34.0657 67.4119C33.9863 67.4428 33.9113 67.4841 33.8428 67.5347C33.817 67.5558 33.7923 67.5783 33.7689 67.602C33.6951 67.6694 33.6321 67.7478 33.5822 67.8344C33.5727 67.8521 33.566 67.8693 33.5574 67.8876C33.5086 67.9858 33.477 68.0915 33.4637 68.2003C33.4615 68.2181 33.462 68.2353 33.4612 68.2527C33.4495 68.323 33.4458 68.3944 33.45 68.4654C33.603 69.5038 33.8371 70.5285 34.1503 71.5301C35.646 76.167 38.6982 80.1444 42.79 82.7891C49.9299 87.565 60.1508 89.0118 70.2468 85.8575C86.1316 80.8944 95.7852 66.3902 91.7654 53.5269Z" fill="#F1B31C"></path><path d="M90.1813 52.0991C90.4178 52.6592 90.6282 53.2338 90.8124 53.823C94.6741 66.1799 85.3331 80.0944 69.9514 84.9008C54.5696 89.7072 38.9673 83.5876 35.1056 71.2307C34.808 70.279 34.5855 69.3055 34.44 68.3191" stroke="black" stroke-width="2" stroke-miterlimit="10"></path><path d="M68.7626 80.7684C84.0673 75.986 93.5207 62.6573 89.8774 50.9978C86.2341 39.3384 70.8737 33.7634 55.569 38.5458C40.2643 43.3281 30.8109 56.6569 34.4542 68.3163C38.0976 79.9758 53.458 85.5508 68.7626 80.7684Z" stroke="black" stroke-width="2" stroke-miterlimit="10"></path><path d="M68.7617 80.7681L69.9502 84.9016M63.8061 81.9589L64.4825 86.1565M59.0724 82.4547L59.202 86.5381M54.247 82.449L53.9438 86.2693M73.0545 79.14L74.6125 83.0863" stroke="black" stroke-width="2" stroke-miterlimit="10"></path></g><g clip-path="url(#clip2_203_1358)"><path d="M56.4576 67.2484C71.2853 61.1457 79.5367 47.0412 74.8875 35.7451C70.2383 24.449 54.4491 20.2389 39.6214 26.3416C24.7937 32.4443 16.5423 46.5488 21.1915 57.8449C25.8407 69.141 41.6299 73.3511 56.4576 67.2484Z" fill="#EFB536"></path><path d="M74.6824 35.6324C72.7876 31.237 69.2793 27.7355 64.8802 25.8493C67.9938 27.8144 70.4291 30.6879 71.8569 34.0817C76.5053 45.3777 68.2553 59.4821 53.428 65.5848C44.38 69.3089 34.9792 69.1866 27.9644 65.964C35.1347 70.6283 45.9246 71.3851 56.2525 67.1351C71.0799 61.0324 79.3321 46.928 74.6824 35.6324Z" fill="white"></path><path d="M76.9913 38.0991C76.7462 37.5041 76.4732 36.921 76.173 36.3519C76.1501 36.3195 76.1251 36.2886 76.0982 36.2595C75.9882 36.102 75.8364 35.9783 75.6599 35.9025C75.4782 35.8256 75.2767 35.809 75.0848 35.855C75.046 35.8577 75.0074 35.8628 74.9692 35.8703C74.9429 35.8786 74.9247 35.8994 74.8997 35.9097C74.8747 35.9199 74.8474 35.9197 74.8223 35.9322C74.7902 35.9553 74.7597 35.9805 74.7308 36.0075C74.5713 36.1183 74.4465 36.2721 74.371 36.4511C74.3484 36.5097 74.3315 36.5703 74.3206 36.6322C74.292 36.7594 74.2937 36.8916 74.3255 37.0181C74.3279 37.058 74.3328 37.0976 74.3402 37.1369C77.923 47.8138 69.9012 60.6359 56.0783 66.3259C41.7825 72.2083 26.5479 68.2328 22.1178 57.4661C22.0852 57.4037 22.0459 57.345 22.0005 57.2911L21.9663 57.2392C21.9021 57.1578 21.8254 57.0872 21.7389 57.03C21.7162 57.0153 21.6953 56.9992 21.6721 56.9854C21.4876 56.8779 21.2713 56.8382 21.0606 56.8733C21.0226 56.8723 20.9846 56.8735 20.9468 56.877C20.9211 56.8823 20.9034 56.9 20.8793 56.9084C20.8571 56.9157 20.834 56.9121 20.8122 56.9206C20.7828 56.9381 20.7545 56.9572 20.7272 56.9778C20.6508 57.0155 20.5797 57.0632 20.5159 57.1196C20.492 57.1429 20.4694 57.1674 20.4482 57.1931C20.3805 57.2667 20.3246 57.3503 20.2825 57.441C20.2746 57.4595 20.2695 57.4772 20.2625 57.4961C20.2225 57.5982 20.2002 57.7063 20.1965 57.8158C20.1958 57.8337 20.1979 57.8508 20.1985 57.8683C20.1931 57.9393 20.1956 58.0107 20.206 58.0812C20.4492 59.1021 20.7721 60.1024 21.1717 61.0728C23.0673 65.5611 26.4556 69.2563 30.763 71.533C38.2934 75.666 48.6017 76.2133 58.3831 72.188C73.7729 65.8545 82.1208 50.5615 76.9913 38.0991Z" fill="#F1B31C"></path><path d="M75.2852 36.8155C75.5698 37.3527 75.8297 37.9067 76.0647 38.4776C80.9924 50.4493 72.9043 65.1275 58.0019 71.2609C43.0996 77.3943 27.0217 72.6629 22.094 60.6911C21.7143 59.7691 21.4075 58.8188 21.1763 57.8489" stroke="black" stroke-width="2" stroke-miterlimit="10"></path><path d="M56.4576 67.2484C71.2853 61.1457 79.5367 47.0412 74.8875 35.7451C70.2383 24.449 54.4491 20.2389 39.6214 26.3416C24.7937 32.4443 16.5423 46.5488 21.1915 57.8449C25.8407 69.141 41.6299 73.3511 56.4576 67.2484Z" stroke="black" stroke-width="2" stroke-miterlimit="10"></path><path d="M56.4575 67.2481L58.003 71.2618M51.6251 68.8678L52.6661 72.9902M46.9529 69.7758L47.4392 73.8322M42.1455 70.1921L42.1776 74.0243M60.5915 65.2507L62.4886 69.0457" stroke="black" stroke-width="2" stroke-miterlimit="10"></path></g><defs><clipPath id="clip0_203_1358"><rect width="72" height="72" fill="white" transform="translate(19.002 32.8803)"></rect></clipPath><clipPath id="clip1_203_1358"><rect width="72" height="72" fill="white" transform="translate(53.0332 11.8803) rotate(33.7782)"></rect></clipPath><clipPath id="clip2_203_1358"><rect width="72" height="72" fill="white" transform="translate(34.7637) rotate(28.7602)"></rect></clipPath></defs></svg>